<?xml version="1.0" standalone="no"?>
<!DOCTYPE svg PUBLIC "-//W3C//DTD SVG 20010904//EN"
 "http://www.w3.org/TR/2001/REC-SVG-20010904/DTD/svg10.dtd">
<svg version="1.0" xmlns="http://www.w3.org/2000/svg"
 width="512.000000pt" height="128.000000pt" viewBox="0 0 512.000000 128.000000"
 preserveAspectRatio="xMidYMid meet">

<g transform="translate(0.000000,128.000000) scale(0.100000,-0.100000)"
fill="#901C1C" stroke="none">
<path d="M774 1269 c-76 -39 -49 -169 35 -169 62 0 101 37 101 95 0 56 -83
101 -136 74z"/>
<path d="M0 765 l0 -485 80 0 80 0 2 208 3 207 193 3 192 2 0 65 0 65 -195 0
-196 0 3 143 3 142 233 3 232 2 0 65 0 65 -315 0 -315 0 0 -485z"/>
<path d="M1780 765 l0 -485 74 0 74 0 4 228 c3 241 5 249 57 305 39 42 76 58
136 58 56 0 98 -16 128 -49 40 -44 46 -88 47 -319 l0 -223 76 0 76 0 -4 253
c-5 282 -12 317 -73 380 -58 59 -117 82 -215 81 -95 0 -136 -14 -193 -64 l-37
-32 0 176 0 176 -75 0 -75 0 0 -485z"/>
<path d="M2868 1120 l-45 -50 -98 0 c-93 0 -97 -1 -126 -29 l-29 -29 0 -330 0
-330 26 -31 26 -31 442 0 c482 0 471 -1 495 58 8 20 11 120 9 351 l-3 323 -28
24 c-26 22 -37 24 -127 24 l-98 0 -45 50 -45 50 -154 0 -155 0 -45 -50z m354
-90 l43 -50 103 0 102 0 -2 -297 -3 -298 -395 0 -395 0 -3 298 -2 297 103 0
104 0 42 50 42 50 109 0 109 0 43 -50z"/>
<path d="M2989 914 c-54 -16 -116 -72 -144 -129 -28 -57 -26 -157 3 -211 104
-199 396 -169 459 46 37 128 -40 262 -173 299 -51 14 -88 13 -145 -5z m160
-111 c68 -52 88 -125 50 -192 -24 -43 -84 -81 -129 -81 -72 0 -150 78 -150
149 0 55 44 117 100 140 34 15 98 6 129 -16z"/>
<path d="M1217 986 c-109 -30 -180 -113 -180 -210 0 -126 69 -171 308 -201
122 -15 158 -40 153 -101 -4 -46 -46 -79 -113 -90 -94 -14 -175 21 -208 89
l-19 37 -70 0 -71 0 6 -42 c9 -65 52 -118 131 -158 67 -34 72 -35 185 -35 100
0 123 3 166 23 128 59 177 169 124 279 -35 72 -110 105 -277 124 -141 15 -172
32 -172 91 0 27 43 72 78 83 83 25 190 -10 219 -70 17 -35 17 -35 86 -35 l70
0 -6 42 c-3 23 -14 53 -25 67 -28 39 -98 89 -140 101 -61 18 -192 21 -245 6z"/>
<path d="M4649 984 c-101 -31 -192 -121 -221 -217 -21 -73 -16 -213 11 -281
29 -72 101 -148 167 -178 99 -43 250 -41 342 6 61 31 126 103 146 162 l15 44
-80 0 c-62 0 -79 -3 -79 -14 0 -21 -48 -74 -82 -92 -37 -19 -135 -20 -179 -1
-64 27 -103 80 -115 156 l-7 41 277 0 276 0 0 43 c0 157 -94 291 -234 332 -62
19 -176 18 -237 -1z m217 -123 c48 -22 83 -66 91 -116 l6 -35 -192 0 c-213 0
-208 -2 -172 68 35 68 91 101 171 101 33 0 72 -7 96 -18z"/>
<path d="M740 635 l0 -355 75 0 75 0 0 355 0 355 -75 0 -75 0 0 -355z"/>
<path d="M3674 973 c3 -10 66 -171 140 -358 l133 -339 -27 -61 c-32 -72 -53
-85 -142 -85 l-68 0 0 -65 0 -65 103 0 c136 1 174 17 210 91 24 48 357 885
357 895 0 2 -35 4 -77 4 l-78 0 -95 -270 c-52 -148 -97 -270 -101 -270 -3 0
-49 122 -103 270 l-99 270 -79 0 c-71 0 -79 -2 -74 -17z"/>
</g>
</svg>
